<svg width="14" height="14" viewBox="0 0 14 14" fill="none" xmlns="http://www.w3.org/2000/svg">
<path d="M7.95631 13.3338L7.88175 13.0504L6.60339 8.19165L6.60339 8.19164C6.55313 8.00062 6.45305 7.82636 6.31338 7.68669C6.17372 7.54702 5.99946 7.44694 5.80844 7.39669L5.80843 7.39669L0.949704 6.11831L0.666463 6.04379C0.73422 6.11152 0.822414 6.16421 0.930576 6.19266L0.930666 6.19268L5.78851 7.4715C5.78854 7.47151 5.78856 7.47151 5.78859 7.47152L5.78886 7.47159L5.66157 7.95512C5.75377 7.97932 5.8379 8.02757 5.90536 8.09493C5.97281 8.16229 6.02118 8.24635 6.04551 8.33852L7.95631 13.3338ZM7.95631 13.3338C7.88855 13.2662 7.83584 13.1781 7.80741 13.0701L7.95631 13.3338ZM13.459 1.28629L13.459 1.2863L8.90343 13.1304L8.90338 13.1305C8.8634 13.2345 8.80149 13.3162 8.72685 13.376L8.83196 13.1027L13.3875 1.2592L13.4918 0.988123C13.507 1.08274 13.4982 1.18432 13.459 1.28629ZM0.624049 5.27324C0.683873 5.19858 0.765561 5.13666 0.869582 5.0967L0.869796 5.09662L12.7137 0.541007L12.7137 0.541003C12.8162 0.501587 12.9183 0.492959 13.0133 0.508441L12.7414 0.61302L0.897448 5.16809L0.624049 5.27324Z" fill="#27282D" stroke="#27282D"/>
</svg>
