<svg width="16" height="18" viewBox="0 0 16 18" fill="none" xmlns="http://www.w3.org/2000/svg">
<path fill-rule="evenodd" clip-rule="evenodd" d="M8 1.89956C4.51068 1.89956 1.56723 4.43452 1.80698 7.5915C1.84136 8.04428 1.89276 8.43842 1.9628 8.75119C2.31613 10.3291 3.42522 11.8966 4.67445 13.2273C5.91304 14.5466 7.2318 15.573 7.91325 16.0708C7.96771 16.1106 8.03229 16.1106 8.08675 16.0708C8.7682 15.573 10.087 14.5466 11.3256 13.2273C12.5748 11.8966 13.6839 10.3291 14.0372 8.75119C14.1072 8.43842 14.1586 8.04428 14.193 7.5915C14.4328 4.43452 11.4893 1.89956 8 1.89956ZM0.517621 7.68054C0.21174 3.65267 3.9355 0.666748 8 0.666748C12.0645 0.666748 15.7883 3.65267 15.4824 7.68054C15.4457 8.16299 15.3887 8.61904 15.3014 9.00864C14.8778 10.9003 13.5907 12.6627 12.2887 14.0496C10.976 15.4478 9.58848 16.5267 8.87285 17.0495C8.35454 17.4281 7.64546 17.4281 7.12715 17.0495C6.41151 16.5267 5.02397 15.4478 3.71131 14.0496C2.40928 12.6627 1.12216 10.9003 0.698567 9.00864C0.611328 8.61904 0.554259 8.16299 0.517621 7.68054Z" fill="#030D45"/>
<path fill-rule="evenodd" clip-rule="evenodd" d="M8 6.83079C7.40504 6.83079 6.92272 7.29074 6.92272 7.85813C6.92272 8.42551 7.40504 8.88547 8 8.88547C8.59496 8.88547 9.07728 8.42551 9.07728 7.85813C9.07728 7.29074 8.59496 6.83079 8 6.83079ZM5.62999 7.85813C5.62999 6.60988 6.69108 5.59798 8 5.59798C9.30892 5.59798 10.37 6.60988 10.37 7.85813C10.37 9.10637 9.30892 10.1183 8 10.1183C6.69108 10.1183 5.62999 9.10637 5.62999 7.85813Z" fill="#030D45"/>
</svg>
