<svg width="59" height="57" viewBox="0 0 59 57" fill="none" xmlns="http://www.w3.org/2000/svg">
<path d="M13.76 37.96H8.04L7.6 31.8H5.84V37.96H2.76V29.16H1V19.92H5.84V26.08H7.6L8.04 19.92H13.76L16.84 14.64H23V12.88H16.84V9.36H37.52V12.88H31.36V14.64H36.2L13.76 37.96Z" fill="white"/>
<path d="M23.88 42.8L48.08 18.6V22.12H51.6V19.48H56.88L58.64 21.24V38.4L56.88 40.16H51.6V37.08H47.64L41.92 43.24L23.88 42.8Z" fill="white"/>
<path d="M4.08 51.6L2.76 50.28L3.64 45L7.16 41.04L12.88 40.16L41.92 10.68L42.8 5.4L46.32 1.88L52.04 1L52.92 1.88L48.08 6.72L51.6 10.24L56.88 5.4L57.76 6.72L56.88 12L53.36 15.52L48.08 16.4L18.16 45.88L17.28 51.6L13.76 55.12L8.92 56L7.6 55.12L12 50.28L8.92 46.76L4.08 51.6Z" fill="white"/>
<path d="M13.76 37.96H8.04L7.6 31.8H5.84V37.96H2.76V29.16H1V19.92H5.84V26.08H7.6L8.04 19.92H13.76L16.84 14.64H23V12.88H16.84V9.36H37.52V12.88H31.36V14.64H36.2L13.76 37.96Z" stroke="black" stroke-width="0.1"/>
<path d="M23.88 42.8L48.08 18.6V22.12H51.6V19.48H56.88L58.64 21.24V38.4L56.88 40.16H51.6V37.08H47.64L41.92 43.24L23.88 42.8Z" stroke="black" stroke-width="0.1"/>
<path d="M4.08 51.6L2.76 50.28L3.64 45L7.16 41.04L12.88 40.16L41.92 10.68L42.8 5.4L46.32 1.88L52.04 1L52.92 1.88L48.08 6.72L51.6 10.24L56.88 5.4L57.76 6.72L56.88 12L53.36 15.52L48.08 16.4L18.16 45.88L17.28 51.6L13.76 55.12L8.92 56L7.6 55.12L12 50.28L8.92 46.76L4.08 51.6Z" stroke="black" stroke-width="0.1"/>
</svg>
